HIERARCHY
ROOT root
{
	OFFSET 0.000000 0.000000 0.000000
	CHANNELS 6 Xposition Yposition Zposition Zrotation Yrotation Xrotation
	JOINT lhip
	{
		OFFSET 0.058581 -0.082280 -0.017664
		CHANNELS 3 Zrotation Yrotation Xrotation
		JOINT lknee
		{
			OFFSET 0.043451 -0.386469 0.008037
			CHANNELS 3 Zrotation Yrotation Xrotation
			JOINT lankle
			{
				OFFSET -0.014790 -0.426874 -0.037428
				CHANNELS 3 Zrotation Yrotation Xrotation
				JOINT ltoe
				{
					OFFSET 0.041054 -0.060286 0.122042
					CHANNELS 3 Zrotation Yrotation Xrotation
					End Site
					{
						OFFSET 0.000000 0.000000 0.000000
					}
				}
			}
		}
	}
	JOINT rhip
	{
		OFFSET -0.060310 -0.090513 -0.013543
		CHANNELS 3 Zrotation Yrotation Xrotation
		JOINT rknee
		{
			OFFSET -0.043257 -0.383688 -0.004843
			CHANNELS 3 Zrotation Yrotation Xrotation
			JOINT rankle
			{
				OFFSET 0.019056 -0.420046 -0.034562
				CHANNELS 3 Zrotation Yrotation Xrotation
				JOINT rtoe
				{
					OFFSET -0.034840 -0.062106 0.130323
					CHANNELS 3 Zrotation Yrotation Xrotation
					End Site
					{
						OFFSET 0.000000 0.000000 0.000000
					}
				}
			}
		}
	}
	JOINT lowerback
	{
		OFFSET 0.004439 0.124404 -0.038385
		CHANNELS 3 Zrotation Yrotation Xrotation
		JOINT upperback
		{
			OFFSET 0.004488 0.137956 0.026820
			CHANNELS 3 Zrotation Yrotation Xrotation
			JOINT chest
			{
				OFFSET -0.002265 0.056032 0.002855
				CHANNELS 3 Zrotation Yrotation Xrotation
				JOINT lowerneck
				{
					OFFSET -0.013390 0.211636 -0.033468
					CHANNELS 3 Zrotation Yrotation Xrotation
					JOINT upperneck
					{
						OFFSET 0.010113 0.088937 0.050410
						CHANNELS 3 Zrotation Yrotation Xrotation
						End Site
						{
							OFFSET 0.000000 0.000000 0.000000
						}
					}
				}
				JOINT lclavicle
				{
					OFFSET 0.071702 0.114000 -0.018898
					CHANNELS 3 Zrotation Yrotation Xrotation
					JOINT lshoulder
					{
						OFFSET 0.122921 0.045205 -0.019046
						CHANNELS 3 Zrotation Yrotation Xrotation
						JOINT lelbow
						{
							OFFSET 0.255332 -0.015649 -0.022946
							CHANNELS 3 Zrotation Yrotation Xrotation
							JOINT lwrist
							{
								OFFSET 0.265709 0.012698 -0.007375
								CHANNELS 3 Zrotation Yrotation Xrotation
								End Site
								{
									OFFSET 0.000000 0.000000 0.000000
								}
							}
						}
					}
				}
				JOINT rclavicle
				{
					OFFSET -0.082954 0.112472 -0.023707
					CHANNELS 3 Zrotation Yrotation Xrotation
					JOINT rshoulder
					{
						OFFSET -0.113228 0.046853 -0.008472
						CHANNELS 3 Zrotation Yrotation Xrotation
						JOINT relbow
						{
							OFFSET -0.260127 -0.014369 -0.031269
							CHANNELS 3 Zrotation Yrotation Xrotation
							JOINT rwrist
							{
								OFFSET -0.269108 0.006794 -0.006027
								CHANNELS 3 Zrotation Yrotation Xrotation
								End Site
								{
									OFFSET 0.000000 0.000000 0.000000
								}
							}
						}
					}
				}
			}
		}
	}
}
MOTION
Frames: 16
Frame Time: 0.033333
-0.117766 0.245456 0.989196 91.110535 -2.040930 84.587545 2.303895 0.564040 -6.625426 -4.619053 0.271514 19.573554 0.077141 11.058571 -7.974790 0.000000 -0.000000 0.000000 -4.121167 -3.151390 -11.749848 -0.051261 -1.337314 25.890605 3.245450 -9.208493 -9.615606 0.000000 -0.000000 0.000000 0.323257 1.507041 20.362941 -1.317431 -1.470354 3.849235 -0.392169 1.961010 -0.849712 -2.306703 -1.504537 -1.606916 3.040283 -3.113944 10.209332 -10.469123 -30.244027 -5.673496 -27.826940 -36.381579 5.852316 17.068437 -49.064808 -31.790924 11.988598 -8.203118 -55.594993 9.682712 33.679546 -1.232750 16.443652 37.546432 -5.124529 -14.884555 34.121583 -31.037820 7.425002 8.817967 -39.128163 
-0.118663 0.245471 0.988849 91.186742 -2.109974 84.610150 2.295599 0.583162 -6.815164 -4.725838 0.310989 19.718228 0.041940 11.076405 -8.015466 0.000000 -0.000000 0.000000 -4.172178 -3.213215 -11.999142 -0.080809 -1.337594 26.240887 3.188754 -9.143283 -9.675322 0.000000 -0.000000 0.000000 0.413394 1.514496 20.586166 -1.311369 -1.473039 3.799420 -0.394035 1.907417 -0.867378 -2.410696 -1.438719 -1.708226 3.046904 -3.123815 10.071794 -10.324766 -30.297734 -5.926967 -27.656826 -36.403557 5.713679 17.146220 -49.199351 -31.999631 12.335071 -8.120611 -55.697454 9.504515 33.757828 -1.385634 16.205212 37.569333 -5.316975 -14.909727 34.180108 -31.037310 7.255667 8.739884 -39.117838 
-0.119289 0.245443 0.988449 91.240331 -2.140610 84.527952 2.290527 0.622017 -6.916275 -4.780528 0.339319 19.971266 0.050075 11.073145 -7.990529 0.000000 -0.000000 0.000000 -4.208170 -3.268010 -12.098931 -0.078732 -1.388191 26.599893 3.135844 -9.157879 -9.677877 0.000000 -0.000000 0.000000 0.472850 1.489495 20.771157 -1.310416 -1.468034 3.829363 -0.402680 1.923929 -0.868321 -2.481362 -1.378935 -1.493427 3.170671 -3.021741 10.011316 -10.279610 -30.440461 -5.871743 -27.312500 -36.460571 5.555581 17.563911 -49.361937 -32.446221 12.656686 -8.054662 -55.849003 9.481746 33.926219 -1.424534 15.840355 37.463182 -5.498163 -14.757661 34.260610 -31.134444 6.809424 8.932531 -39.358345 
-0.119274 0.245335 0.987862 91.277326 -2.223344 84.382679 2.231638 0.635227 -6.884064 -4.789278 0.331380 20.198211 0.133175 11.053416 -8.063233 0.000000 -0.000000 0.000000 -4.285433 -3.287628 -12.035404 -0.069406 -1.320718 26.798377 3.204641 -9.216310 -9.752796 0.000000 -0.000000 0.000000 0.490365 1.569291 20.968345 -1.367232 -1.421606 3.857062 -0.420358 1.948487 -0.859613 -2.447901 -1.515670 -1.310116 3.248662 -2.900988 10.036662 -10.166828 -30.685093 -5.971919 -27.220371 -36.656692 5.387901 17.713596 -49.297453 -32.636874 12.470454 -7.834636 -55.605663 9.298279 33.943261 -1.576786 15.947927 37.298717 -5.441818 -15.065758 34.293883 -31.389635 7.201527 8.837106 -38.982729 
-0.119321 0.245102 0.987648 91.308613 -2.214640 84.330967 2.258799 0.640017 -6.920866 -4.776510 0.356942 20.353811 0.091927 11.001612 -8.094021 0.000000 -0.000000 0.000000 -4.277077 -3.283053 -11.993806 -0.063759 -1.356234 26.839974 3.164885 -9.196660 -9.772787 0.000000 -0.000000 0.000000 0.520015 1.575692 21.004328 -1.326211 -1.402694 3.922402 -0.427797 1.884231 -0.862975 -2.508805 -1.546459 -1.251165 3.190478 -3.018799 10.044921 -10.200988 -30.648204 -6.025585 -27.104532 -36.717205 5.311437 17.731813 -49.403849 -32.665512 12.224829 -7.988766 -55.552739 9.274779 33.984414 -1.525013 15.828700 37.341915 -5.554586 -15.015165 34.280692 -31.251958 7.344246 8.933089 -38.916377 
-0.119045 0.244664 0.987465 91.252625 -2.241531 84.303990 2.245982 0.677002 -6.852462 -4.756048 0.319861 20.350171 0.113709 11.034108 -8.156145 0.000000 -0.000000 0.000000 -4.260935 -3.214144 -12.003925 -0.072911 -1.335480 26.954718 3.114636 -9.225324 -9.872483 0.000000 -0.000000 0.000000 0.445123 1.618880 20.937529 -1.292095 -1.369728 4.015398 -0.424860 1.802924 -0.878701 -2.557712 -1.553417 -1.203764 3.149427 -3.075253 10.112933 -10.244064 -30.604469 -6.036633 -27.053583 -36.686693 5.315161 17.800316 -49.562445 -32.718858 12.223632 -7.956026 -55.620174 9.305006 34.056376 -1.425518 15.896685 37.393596 -5.519494 -15.112528 34.412610 -31.349713 7.285390 8.860717 -39.067007 
-0.118711 0.244156 0.987437 91.185715 -2.239036 84.321039 2.281002 0.639253 -6.848310 -4.728753 0.433239 20.354648 0.125948 11.072465 -8.141808 0.000000 -0.000000 0.000000 -4.212645 -3.164378 -12.037825 -0.077080 -1.334955 27.002758 3.131499 -9.244230 -9.885570 0.000000 -0.000000 0.000000 0.371102 1.675038 20.826802 -1.295011 -1.374408 3.973269 -0.441054 1.845813 -0.784630 -2.478687 -1.470881 -1.192129 3.172316 -3.135510 10.093094 -10.259463 -30.626167 -5.959577 -27.028249 -36.714199 5.344370 17.930175 -49.614315 -32.860596 12.418524 -7.834770 -55.533049 9.440681 34.008346 -1.421461 16.053845 37.429721 -5.359014 -15.156203 34.537332 -31.302839 7.070163 8.762780 -39.148957 
-0.118337 0.243681 0.987533 91.115632 -2.227871 84.347175 2.311974 0.602289 -6.820459 -4.692460 0.470216 20.317097 0.100463 11.094580 -8.104441 0.000000 -0.000000 0.000000 -4.164947 -3.144645 -12.027899 -0.074432 -1.330467 26.950446 3.115390 -9.219104 -9.852253 0.000000 -0.000000 0.000000 0.294670 1.719898 20.790079 -1.313792 -1.349640 3.903539 -0.434114 1.872817 -0.833570 -2.464966 -1.451512 -1.123778 3.221984 -3.141754 9.988685 -10.336849 -30.675672 -5.791638 -26.952300 -36.688835 5.285923 17.966491 -49.711601 -32.841033 12.286343 -8.047080 -55.771316 9.521654 33.929860 -1.437417 16.279928 37.399671 -5.156391 -15.130208 34.702087 -31.115689 7.131684 8.934317 -39.228477 
-0.117818 0.243125 0.987620 91.092101 -2.210615 84.301875 2.344433 0.657941 -6.721643 -4.659658 0.435400 20.313152 0.067778 11.114472 -8.144075 0.000000 -0.000000 0.000000 -4.107225 -3.163352 -11.895194 -0.061876 -1.288017 26.886046 3.080038 -9.184069 -9.899323 0.000000 -0.000000 0.000000 0.243656 1.764930 20.722814 -1.317122 -1.354966 3.956186 -0.429776 1.854849 -0.837094 -2.528096 -1.537637 -1.087246 3.218763 -3.162349 9.844819 -10.346274 -30.736939 -5.768450 -26.854052 -36.592221 5.277172 17.973758 -49.772179 -32.924409 12.158526 -7.955224 -55.766051 9.617841 33.886034 -1.431855 16.214459 37.402507 -5.181698 -14.966625 34.892339 -30.869262 7.372864 8.824342 -39.049926 
-0.117590 0.242530 0.987600 91.044636 -2.184716 84.257012 2.432353 0.660924 -6.643971 -4.705872 0.428070 20.300395 0.039440 11.124816 -8.133959 0.000000 -0.000000 0.000000 -4.056275 -3.169941 -11.831866 -0.002622 -1.271752 26.870232 3.009148 -9.221828 -9.915691 0.000000 -0.000000 0.000000 0.190240 1.788718 20.546908 -1.300044 -1.368607 4.114818 -0.443077 1.796694 -0.817630 -2.575075 -1.415262 -0.970589 3.124782 -3.193806 9.887640 -10.393661 -30.778649 -5.752323 -26.513948 -36.546337 5.231909 17.880194 -49.714394 -33.049183 12.083421 -8.095359 -55.674851 9.564076 34.067697 -1.441079 15.832947 37.411749 -5.181556 -14.613612 34.718775 -30.653919 7.348824 8.882234 -38.813168 
-0.117299 0.242056 0.987538 90.982156 -2.231827 84.306695 2.422633 0.717936 -6.660217 -4.707747 0.431083 20.278778 0.002395 11.178811 -8.179034 0.000000 -0.000000 0.000000 -4.047206 -3.136389 -11.903562 -0.028374 -1.207258 26.926956 3.006987 -9.236304 -9.943458 0.000000 -0.000000 0.000000 0.133761 1.581876 20.546071 -1.463532 -1.479227 3.942519 -0.577829 2.030654 -0.824075 -2.497030 -1.298299 -0.912632 3.139910 -3.162751 10.041693 -10.224242 -30.640184 -5.901392 -26.448973 -36.475688 5.279189 17.704864 -49.737853 -32.714796 12.007496 -8.164282 -55.941609 9.571531 34.125091 -1.390175 15.848127 37.566480 -5.190992 -14.621632 34.594416 -30.599298 7.339523 8.859930 -38.953941 
-0.117163 0.241747 0.987475 91.026449 -2.242876 84.315413 2.417945 0.673561 -6.688989 -4.705342 0.410699 20.307586 0.007211 11.227007 -8.167491 0.000000 -0.000000 0.000000 -4.058703 -3.172549 -11.926141 0.044609 -1.145100 26.963678 3.030749 -9.320327 -9.975447 0.000000 -0.000000 0.000000 0.118427 1.400443 20.559074 -1.591904 -1.600153 3.879225 -0.645253 2.213047 -0.832915 -2.463695 -1.259329 -0.879757 3.191430 -3.023065 10.154243 -10.066325 -30.581666 -6.014117 -26.389036 -36.470232 5.335957 17.746277 -49.780559 -32.767247 12.224905 -8.195153 -56.133639 9.599992 34.234164 -1.340101 15.476037 37.492176 -5.345704 -14.405135 34.637661 -30.510431 7.250421 9.082431 -39.172430 
-0.117017 0.241434 0.987397 91.053020 -2.226634 84.296912 2.435436 0.699365 -6.682413 -4.685975 0.365851 20.333620 0.029201 11.206090 -8.144591 0.000000 -0.000000 0.000000 -4.006672 -3.146918 -11.921051 -0.001877 -1.189518 27.013582 3.057579 -9.333494 -10.010354 0.000000 -0.000000 0.000000 0.151913 1.326133 20.699525 -1.671071 -1.590610 3.728934 -0.681297 2.253440 -0.826740 -2.537929 -1.321073 -0.862306 3.261687 -2.899840 10.137373 -9.880561 -30.513569 -6.258047 -26.604144 -36.509744 5.400696 17.832551 -49.854908 -32.796164 12.173582 -7.892494 -55.973296 9.180869 34.196310 -1.511391 15.837861 37.501196 -5.286011 -14.928345 34.703244 -31.062073 7.264680 8.770327 -39.054796 
-0.117098 0.241225 0.987330 91.099936 -2.176654 84.096671 2.518016 0.725075 -6.516693 -4.726196 0.301050 20.377859 0.033563 11.216594 -8.180404 0.000000 -0.000000 0.000000 -3.966458 -3.180364 -11.735395 0.076279 -1.120141 27.038442 3.024738 -9.406391 -10.052800 0.000000 -0.000000 0.000000 0.230624 1.688628 20.816390 -1.536194 -1.312759 4.171937 -0.557204 1.831543 -1.060262 -2.661031 -1.477790 -0.965891 3.143718 -2.888304 10.171409 -9.941969 -30.801851 -6.150031 -26.503796 -36.647844 5.190224 18.026906 -49.797723 -32.954726 12.258333 -8.129096 -56.016012 8.761739 34.065701 -1.834518 15.651977 37.299404 -5.447146 -14.880739 34.804557 -31.193244 7.209801 8.824492 -38.939895 
-0.116930 0.241015 0.987296 91.149469 -2.185853 84.049077 2.528978 0.752251 -6.440630 -4.735737 0.258942 20.280540 0.016534 11.208238 -8.115428 0.000000 -0.000000 0.000000 -3.951269 -3.193272 -11.659343 0.075931 -1.091444 26.997166 2.978088 -9.462014 -10.070533 0.000000 -0.000000 0.000000 0.213689 1.800327 20.724863 -1.485301 -1.222980 4.367291 -0.507567 1.723950 -1.107103 -2.695078 -1.528712 -0.997702 3.088122 -2.855015 10.127400 -10.060225 -30.917972 -6.067632 -26.457721 -36.623269 5.155167 18.216193 -49.971168 -33.235722 12.193909 -7.969130 -55.794389 8.715062 34.035141 -1.975190 15.555283 37.176969 -5.446528 -14.995566 34.898740 -31.337410 7.298547 8.795930 -38.871697 
-0.116516 0.240865 0.987772 91.177979 -2.181598 84.050727 2.578631 0.758302 -6.284183 -4.798956 0.238506 20.022397 -0.062801 11.199127 -8.037580 0.000000 -0.000000 0.000000 -3.932364 -3.214087 -11.516217 0.043498 -1.113143 26.771728 2.993491 -9.446312 -9.966358 0.000000 -0.000000 0.000000 0.248912 1.748720 20.715596 -1.503830 -1.231206 4.344336 -0.508571 1.733015 -1.117239 -2.785336 -1.569991 -1.120474 3.136343 -2.744261 10.008411 -10.026878 -30.691066 -5.981934 -26.776935 -36.106148 5.589407 19.080419 -51.136051 -33.759777 12.771066 -7.658305 -56.156611 8.518187 33.959698 -1.949552 16.221255 36.916127 -4.949976 -15.782478 35.633652 -32.017613 6.810024 8.642938 -39.063400 
